SplineFontDB: 3.2
FontName: tp6-captcha-default
FullName: default
FamilyName: tp6-captcha
Weight: custom
Copyright: \nCreated by webfont\n
Version: 1.1
DefaultBaseFilename: 1
ItalicAngle: 0
UnderlinePosition: 0
UnderlineWidth: 0
Ascent: 896
Descent: 128
InvalidEm: 0
sfntRevision: 0x00010000
LayerCount: 2
Layer: 0 1 "+gMxmbwAA" 1
Layer: 1 1 "+Uk1mbwAA" 0
XUID: [1021 389 -1013409464 11845]
StyleMap: 0x0040
FSType: 8
OS2Version: 1
OS2_WeightWidthSlopeOnly: 0
OS2_UseTypoMetrics: 0
CreationTime: 1578929958
ModificationTime: 1584754861
PfmFamily: 17
TTFWeight: 400
TTFWidth: 5
LineGap: 92
VLineGap: 0
Panose: 2 0 5 3 0 0 0 0 0 0
OS2TypoAscent: 901
OS2TypoAOffset: 0
OS2TypoDescent: -123
OS2TypoDOffset: 0
OS2TypoLinegap: 92
OS2WinAscent: 901
OS2WinAOffset: 0
OS2WinDescent: 226
OS2WinDOffset: 0
HheadAscent: 901
HheadAOffset: 0
HheadDescent: -123
HheadDOffset: 0
OS2SubXSize: 649
OS2SubYSize: 717
OS2SubXOff: 0
OS2SubYOff: 143
OS2SupXSize: 649
OS2SupYSize: 717
OS2SupXOff: 0
OS2SupYOff: 492
OS2StrikeYSize: 50
OS2StrikeYPos: 264
OS2Vendor: 'PfEd'
OS2CodePages: 00000001.00000000
OS2UnicodeRanges: 00000000.00000000.00000000.00000000
Lookup: 4 0 1 "'liga' +aAdRxn7EVAgA +Z+VifgAA 0" { "'liga' +aAdRxn7EVAgA +Z+VifgAA 0+Zv9O44ho"  } [' RQD' ('DFLT' <'dflt' > ) 'liga' ('DFLT' <'dflt' > ) ]
MarkAttachClasses: 1
DEI: 91125
ShortTable: maxp 16
  1
  0
  53
  61
  3
  0
  0
  2
  0
  10
  10
  0
  255
  0
  0
  0
EndShort
LangName: 1033 "" "" "Regular" "" "" "Version 1.0" "" "" "" "" "Generated by svg2ttf from Fontello project." "http://fontello.com"
Encoding: win
Compacted: 1
UnicodeInterp: none
NameList: AGL For New Fonts
DisplaySize: -48
AntiAlias: 1
FitToEm: 0
WinInfo: 0 38 14
BeginPrivate: 0
EndPrivate
BeginChars: 257 52

StartChar: two
Encoding: 50 50 0
Width: 576
VWidth: 971
Flags: W
HStem: 95 132<307 533> 576 22G<137 169> 639 122<202 329>
VStem: 353 151<465 614>
LayerCount: 2
Fore
SplineSet
80 185 m 1,0,1
 141 240 141 240 191.5 290.5 c 128,-1,2
 242 341 242 341 277.5 386 c 128,-1,3
 313 431 313 431 333 471 c 128,-1,4
 353 511 353 511 353 547 c 0,5,6
 353 592 353 592 330 615.5 c 128,-1,7
 307 639 307 639 268 639 c 0,8,9
 234 639 234 639 207 620 c 128,-1,10
 180 601 180 601 158 576 c 1,11,-1
 72 660 l 1,12,13
 96 686 96 686 120 704.5 c 128,-1,14
 144 723 144 723 170 736 c 128,-1,15
 196 749 196 749 225 755 c 128,-1,16
 254 761 254 761 289 761 c 0,17,18
 336 761 336 761 376 746.5 c 128,-1,19
 416 732 416 732 444 705 c 128,-1,20
 472 678 472 678 487.5 640 c 128,-1,21
 503 602 503 602 504 555 c 0,22,23
 504 513 504 513 487 469 c 128,-1,24
 470 425 470 425 442.5 382 c 128,-1,25
 415 339 415 339 379.5 297.5 c 128,-1,26
 344 256 344 256 306 218 c 1,27,28
 331 221 331 221 361 224 c 128,-1,29
 391 227 391 227 413 227 c 2,30,-1
 534 227 l 1,31,-1
 534 95 l 1,32,-1
 80 95 l 1,33,-1
 80 185 l 1,0,1
EndSplineSet
Validated: 1
EndChar

StartChar: three
Encoding: 51 51 1
Width: 575
VWidth: 970
Flags: W
HStem: 82 126<191 346> 373 110<205 318> 638 122<203 337>
VStem: 351 157<513 624> 372 157<232 341>
LayerCount: 2
Fore
SplineSet
287 82 m 0,0,1
 209 82 209 82 154 106.5 c 128,-1,2
 99 131 99 131 63 173 c 1,3,-1
 135 271 l 1,4,5
 165 243 165 243 198.5 226 c 128,-1,6
 232 209 232 209 271 208 c 0,7,8
 317 208 317 208 344.5 227 c 128,-1,9
 372 246 372 246 372 283 c 0,10,11
 372 305 372 305 364.5 321.5 c 128,-1,12
 357 338 357 338 339 349.5 c 128,-1,13
 321 361 321 361 288.5 367 c 128,-1,14
 256 373 256 373 205 373 c 1,15,-1
 205 482 l 1,16,17
 247 482 247 482 275 488.5 c 128,-1,18
 303 495 303 495 320 506 c 128,-1,19
 337 517 337 517 344 533 c 128,-1,20
 351 549 351 549 351 568 c 0,21,22
 351 638 351 638 276 638 c 0,23,24
 242 638 242 638 215.5 623 c 128,-1,25
 189 608 189 608 160 584 c 1,26,-1
 81 679 l 1,27,28
 127 718 127 718 176 739 c 128,-1,29
 225 760 225 760 284 760 c 0,30,31
 335 760 335 760 376 748 c 128,-1,32
 417 736 417 736 446.5 713 c 128,-1,33
 476 690 476 690 492 657 c 128,-1,34
 508 624 508 624 508 580 c 0,35,36
 508 531 508 531 481.5 494 c 128,-1,37
 455 457 455 457 402 436 c 1,38,-1
 402 431 l 1,39,40
 457 415 457 415 492.5 375.5 c 128,-1,41
 528 336 528 336 528 272 c 0,42,43
 528 226 528 226 508.5 191 c 128,-1,44
 489 156 489 156 456 132 c 128,-1,45
 423 108 423 108 379 95 c 128,-1,46
 335 82 335 82 287 82 c 0,0,1
EndSplineSet
Validated: 1
EndChar

StartChar: four
Encoding: 52 52 2
Width: 577
VWidth: 970
Flags: W
HStem: 258 119<213 337 483 556> 727 20G<279 483>
VStem: 338 145<94 258 376 617>
LayerCount: 2
Fore
SplineSet
556 258 m 1,0,-1
 483 258 l 1,1,-1
 483 94 l 1,2,-1
 338 94 l 1,3,-1
 338 258 l 1,4,-1
 63 258 l 1,5,-1
 63 366 l 1,6,-1
 291 748 l 1,7,-1
 483 748 l 1,8,-1
 483 377 l 1,9,-1
 556 377 l 1,10,-1
 556 258 l 1,0,-1
338 377 m 1,11,-1
 338 472 l 2,12,13
 338 487 338 487 338 506 c 2,14,-1
 344 617 l 1,15,-1
 340 617 l 1,16,-1
 315 560 l 1,17,-1
 288 505 l 1,18,-1
 213 377 l 1,19,-1
 338 377 l 1,11,-1
EndSplineSet
Validated: 1
EndChar

StartChar: five
Encoding: 53 53 3
Width: 575
VWidth: 969
Flags: W
HStem: 81 126<190 341> 411 109<258 342> 617 130<267 500>
VStem: 373 157<238 380>
LayerCount: 2
Fore
SplineSet
293 81 m 0,0,1
 214 81 214 81 158.5 107 c 128,-1,2
 103 133 103 133 65 171 c 1,3,-1
 135 269 l 1,4,5
 163 242 163 242 196.5 225 c 128,-1,6
 230 208 230 208 269 207 c 0,7,8
 316 207 316 207 344.5 232.5 c 128,-1,9
 373 258 373 258 373 308.5 c 128,-1,10
 373 359 373 359 345.5 385 c 128,-1,11
 318 411 318 411 276 411 c 0,12,13
 263 411 263 411 252.5 409.5 c 128,-1,14
 242 408 242 408 231.5 403.5 c 128,-1,15
 221 399 221 399 210 393 c 128,-1,16
 199 387 199 387 184 379 c 1,17,-1
 116 423 l 1,18,-1
 133 747 l 1,19,-1
 500 747 l 1,20,-1
 500 617 l 1,21,-1
 267 617 l 1,22,-1
 257 506 l 1,23,24
 274 513 274 513 290 516 c 128,-1,25
 306 519 306 519 325 519 c 0,26,27
 366 519 366 519 403.5 507 c 128,-1,28
 441 495 441 495 469 469 c 128,-1,29
 497 443 497 443 512.5 404.5 c 128,-1,30
 528 366 528 366 529 312 c 0,31,32
 529 257 529 257 509.5 214 c 128,-1,33
 490 171 490 171 457.5 142 c 128,-1,34
 425 113 425 113 382.5 97 c 128,-1,35
 340 81 340 81 293 81 c 0,0,1
EndSplineSet
Validated: 1
EndChar

StartChar: six
Encoding: 54 54 4
Width: 577
VWidth: 970
Flags: W
HStem: 82 117<275 376> 399 110<278 379> 635 125<288 425>
VStem: 85 143<445 561> 401 143<224 377>
LayerCount: 2
Fore
SplineSet
454 590 m 1,0,1
 439 607 439 607 411 621 c 128,-1,2
 383 635 383 635 357 635 c 128,-1,3
 331 635 331 635 309 625 c 128,-1,4
 287 615 287 615 269.5 593 c 128,-1,5
 252 571 252 571 241.5 534.5 c 128,-1,6
 231 498 231 498 228 444 c 1,7,8
 240 459 240 459 256 471.5 c 128,-1,9
 272 484 272 484 288.5 492 c 128,-1,10
 305 500 305 500 322 504.5 c 128,-1,11
 339 509 339 509 353 509 c 0,12,13
 393 509 393 509 428.5 496.5 c 128,-1,14
 464 484 464 484 489.5 459 c 128,-1,15
 515 434 515 434 530 395 c 128,-1,16
 545 356 545 356 545 304 c 128,-1,17
 545 252 545 252 527.5 210.5 c 128,-1,18
 510 169 510 169 481 140.5 c 128,-1,19
 452 112 452 112 413 97 c 128,-1,20
 374 82 374 82 330 82 c 0,21,22
 284 82 284 82 239.5 101 c 128,-1,23
 195 120 195 120 161 160 c 128,-1,24
 127 200 127 200 106 263 c 128,-1,25
 85 326 85 326 85 415 c 128,-1,26
 85 504 85 504 106.5 569 c 128,-1,27
 128 634 128 634 164.5 676.5 c 128,-1,28
 201 719 201 719 247.5 739.5 c 128,-1,29
 294 760 294 760 345 760 c 0,30,31
 410 760 410 760 457.5 737 c 128,-1,32
 505 714 505 714 536 682 c 1,33,-1
 454 590 l 1,0,1
326 199 m 0,34,35
 357 199 357 199 379 223.5 c 128,-1,36
 401 248 401 248 401 302 c 128,-1,37
 401 356 401 356 378 377.5 c 128,-1,38
 355 399 355 399 324 399 c 0,39,40
 299 399 299 399 275 386 c 128,-1,41
 251 373 251 373 231 340 c 1,42,43
 236 299 236 299 246 272.5 c 128,-1,44
 256 246 256 246 268.5 229 c 128,-1,45
 281 212 281 212 296 205.5 c 128,-1,46
 311 199 311 199 326 199 c 0,34,35
EndSplineSet
Validated: 1
EndChar

StartChar: seven
Encoding: 55 55 5
Width: 577
VWidth: 970
Flags: W
HStem: 618 130<89 370>
VStem: 202 157<94 291>
LayerCount: 2
Fore
SplineSet
202 94 m 1,0,1
 206 175 206 175 215.5 243 c 128,-1,2
 225 311 225 311 244 373 c 128,-1,3
 263 435 263 435 293.5 494 c 128,-1,4
 324 553 324 553 371 618 c 1,5,-1
 89 618 l 1,6,-1
 89 748 l 1,7,-1
 538 748 l 1,8,-1
 538 652 l 1,9,10
 500 607 500 607 472.5 566 c 128,-1,11
 445 525 445 525 426.5 484 c 128,-1,12
 408 443 408 443 396 401 c 128,-1,13
 384 359 384 359 377 312 c 128,-1,14
 370 265 370 265 365.5 212 c 128,-1,15
 361 159 361 159 358 94 c 1,16,-1
 202 94 l 1,0,1
EndSplineSet
Validated: 1
EndChar

StartChar: eight
Encoding: 56 56 6
Width: 577
VWidth: 970
Flags: W
HStem: 82 109<248 373> 651 108<263 366>
VStem: 87 133<218 345> 109 137<526 636> 385 126<504 632> 394 144<210 320>
LayerCount: 2
Fore
SplineSet
314 191 m 0,0,1
 348 191 348 191 371 208.5 c 128,-1,2
 394 226 394 226 394 265 c 0,3,4
 394 287 394 287 385 303.5 c 128,-1,5
 376 320 376 320 359 332.5 c 128,-1,6
 342 345 342 345 318 357 c 128,-1,7
 294 369 294 369 264 381 c 1,8,9
 244 362 244 362 232 334 c 128,-1,10
 220 306 220 306 220 276 c 0,11,12
 220 236 220 236 247.5 213.5 c 128,-1,13
 275 191 275 191 314 191 c 0,0,1
350 478 m 1,14,15
 368 501 368 501 376.5 525 c 128,-1,16
 385 549 385 549 385 575 c 0,17,18
 385 611 385 611 366 631 c 128,-1,19
 347 651 347 651 311 651 c 0,20,21
 284 651 284 651 265 635 c 128,-1,22
 246 619 246 619 246 584 c 0,23,24
 246 544 246 544 274 520.5 c 128,-1,25
 302 497 302 497 350 478 c 1,14,15
310 82 m 0,26,27
 262 82 262 82 221 95 c 128,-1,28
 180 108 180 108 150.5 130.5 c 128,-1,29
 121 153 121 153 104 185.5 c 128,-1,30
 87 218 87 218 87 257 c 0,31,32
 87 318 87 318 117.5 357.5 c 128,-1,33
 148 397 148 397 194 422 c 1,34,-1
 194 426 l 1,35,36
 155 454 155 454 132 492 c 128,-1,37
 109 530 109 530 109 584 c 0,38,39
 109 624 109 624 124 656.5 c 128,-1,40
 139 689 139 689 167 712 c 128,-1,41
 195 735 195 735 232.5 747.5 c 128,-1,42
 270 760 270 760 314.5 759.5 c 128,-1,43
 359 759 359 759 395.5 747 c 128,-1,44
 432 735 432 735 457.5 712 c 128,-1,45
 483 689 483 689 497.5 657 c 128,-1,46
 512 625 512 625 511 585 c 0,47,48
 511 539 511 539 487 501 c 128,-1,49
 463 463 463 463 429 440 c 1,50,-1
 429 436 l 1,51,52
 453 424 453 424 473 407.5 c 128,-1,53
 493 391 493 391 507.5 369 c 128,-1,54
 522 347 522 347 530.5 320 c 128,-1,55
 539 293 539 293 539 259 c 0,56,57
 539 221 539 221 523 189 c 128,-1,58
 507 157 507 157 476 133.5 c 128,-1,59
 445 110 445 110 403 96 c 128,-1,60
 361 82 361 82 310 82 c 0,26,27
EndSplineSet
Validated: 33
EndChar

StartChar: A
Encoding: 65 65 7
Width: 626
VWidth: 970
Flags: W
HStem: 245 121<269 402> 727 20G<238 438>
LayerCount: 2
Fore
SplineSet
432 245 m 1,0,-1
 239 245 l 1,1,-1
 201 94 l 1,2,-1
 41 94 l 1,3,-1
 244 748 l 1,4,-1
 432 748 l 1,5,-1
 635 94 l 1,6,-1
 470 94 l 1,7,-1
 432 245 l 1,0,-1
402 366 m 1,8,-1
 388 421 l 2,9,10
 376 470 376 470 362.5 525.5 c 128,-1,11
 349 581 349 581 336 631 c 1,12,-1
 333 631 l 1,13,-1
 308 524 l 2,14,15
 295 470 295 470 283 421 c 2,16,-1
 268 366 l 1,17,-1
 402 366 l 1,8,-1
EndSplineSet
Validated: 1
EndChar

StartChar: B
Encoding: 66 66 8
Width: 662
VWidth: 970
Flags: W
HStem: 94 120<287 452> 373 116<287 425> 628 120<287 425>
VStem: 130 157<215 373 489 628> 449 153<510 612> 479 153<241 351>
LayerCount: 2
Fore
SplineSet
366 214 m 2,0,1
 480 214 480 214 479 298 c 0,2,3
 479 338 479 338 451 355.5 c 128,-1,4
 423 373 423 373 366 373 c 2,5,-1
 287 373 l 1,6,-1
 287 214 l 1,7,-1
 366 214 l 2,0,1
352 489 m 2,8,9
 402 489 402 489 425.5 508.5 c 128,-1,10
 449 528 449 528 449 562.5 c 128,-1,11
 449 597 449 597 425.5 612.5 c 128,-1,12
 402 628 402 628 352 628 c 2,13,-1
 287 628 l 1,14,-1
 287 489 l 1,15,-1
 352 489 l 2,8,9
130 748 m 1,16,-1
 358 748 l 2,17,18
 409 748 409 748 453.5 740 c 128,-1,19
 498 732 498 732 530.5 713.5 c 128,-1,20
 563 695 563 695 582 664 c 128,-1,21
 601 633 601 633 601 586 c 0,22,23
 601 564 601 564 595.5 542 c 128,-1,24
 590 520 590 520 578.5 501 c 128,-1,25
 567 482 567 482 551.5 467.5 c 128,-1,26
 536 453 536 453 516 444 c 1,27,-1
 516 441 l 1,28,29
 541 434 541 434 562 422 c 128,-1,30
 583 410 583 410 598.5 390.5 c 128,-1,31
 614 371 614 371 623 345.5 c 128,-1,32
 632 320 632 320 632 288 c 0,33,34
 632 238 632 238 612.5 201.5 c 128,-1,35
 593 165 593 165 558 141 c 128,-1,36
 523 117 523 117 476.5 105.5 c 128,-1,37
 430 94 430 94 377 94 c 2,38,-1
 130 94 l 1,39,-1
 130 748 l 1,16,-1
EndSplineSet
Validated: 33
EndChar

StartChar: C
Encoding: 67 67 9
Width: 634
VWidth: 970
Flags: W
HStem: 82 135<331 488> 575 22G<512 541> 626 134<336 487>
VStem: 96 161<303 534>
LayerCount: 2
Fore
SplineSet
402 82 m 0,0,1
 340 82 340 82 284.5 103 c 128,-1,2
 229 124 229 124 187 166.5 c 128,-1,3
 145 209 145 209 120.5 271.5 c 128,-1,4
 96 334 96 334 96 416.5 c 128,-1,5
 96 499 96 499 121.5 563 c 128,-1,6
 147 627 147 627 189.5 670.5 c 128,-1,7
 232 714 232 714 289 737 c 128,-1,8
 346 760 346 760 409 760 c 128,-1,9
 472 760 472 760 522.5 734.5 c 128,-1,10
 573 709 573 709 606 675 c 1,11,-1
 524 575 l 1,12,13
 499 598 499 598 472 612 c 128,-1,14
 445 626 445 626 411 626 c 0,15,16
 379 626 379 626 351 612 c 128,-1,17
 323 598 323 598 302.5 572 c 128,-1,18
 282 546 282 546 269.5 508 c 128,-1,19
 257 470 257 470 257 423 c 0,20,21
 257 325 257 325 298.5 271 c 128,-1,22
 340 217 340 217 409 217 c 0,23,24
 449 217 449 217 480 234.5 c 128,-1,25
 511 252 511 252 534 277 c 1,26,-1
 616 178 l 1,27,28
 532 82 532 82 402 82 c 0,0,1
EndSplineSet
Validated: 1
EndChar

StartChar: D
Encoding: 68 68 10
Width: 694
VWidth: 970
Flags: W
HStem: 94 126<288 410> 623 125<288 413>
VStem: 131 157<221 623> 489 161<305 543>
LayerCount: 2
Fore
SplineSet
309 220 m 2,0,1
 349 220 349 220 382 230.5 c 128,-1,2
 415 241 415 241 439 265 c 128,-1,3
 463 289 463 289 476 328 c 128,-1,4
 489 367 489 367 489 424.5 c 128,-1,5
 489 482 489 482 476 520.5 c 128,-1,6
 463 559 463 559 439 581.5 c 128,-1,7
 415 604 415 604 382 613.5 c 128,-1,8
 349 623 349 623 309 623 c 2,9,-1
 288 623 l 1,10,-1
 288 220 l 1,11,-1
 309 220 l 2,0,1
131 748 m 1,12,-1
 319 748 l 2,13,14
 394 748 394 748 455 729.5 c 128,-1,15
 516 711 516 711 559.5 671.5 c 128,-1,16
 603 632 603 632 626.5 571 c 128,-1,17
 650 510 650 510 650 424.5 c 128,-1,18
 650 339 650 339 626.5 277 c 128,-1,19
 603 215 603 215 560 174.5 c 128,-1,20
 517 134 517 134 458 114 c 128,-1,21
 399 94 399 94 328 94 c 2,22,-1
 131 94 l 1,23,-1
 131 748 l 1,12,-1
EndSplineSet
Validated: 1
EndChar

StartChar: E
Encoding: 69 69 11
Width: 599
VWidth: 970
Flags: W
HStem: 94 132<280 547> 365 132<280 499> 618 130<280 538>
VStem: 123 157<226 365 496 618>
LayerCount: 2
Fore
SplineSet
123 748 m 1,0,-1
 538 748 l 1,1,-1
 538 618 l 1,2,-1
 280 618 l 1,3,-1
 280 497 l 1,4,-1
 499 497 l 1,5,-1
 499 365 l 1,6,-1
 280 365 l 1,7,-1
 280 226 l 1,8,-1
 548 226 l 1,9,-1
 548 94 l 1,10,-1
 123 94 l 1,11,-1
 123 748 l 1,0,-1
EndSplineSet
Validated: 1
EndChar

StartChar: F
Encoding: 70 70 12
Width: 575
VWidth: 970
Flags: W
HStem: 344 131<280 503> 618 130<280 540>
VStem: 123 157<94 344 474 618>
LayerCount: 2
Fore
SplineSet
123 748 m 1,0,-1
 540 748 l 1,1,-1
 540 618 l 1,2,-1
 280 618 l 1,3,-1
 280 475 l 1,4,-1
 503 475 l 1,5,-1
 503 344 l 1,6,-1
 280 344 l 1,7,-1
 280 94 l 1,8,-1
 123 94 l 1,9,-1
 123 748 l 1,0,-1
EndSplineSet
Validated: 1
EndChar

StartChar: G
Encoding: 71 71 13
Width: 695
VWidth: 970
Flags: W
HStem: 82 135<341 499> 339 128<397 500> 575 22G<533 562> 626 134<342 508>
VStem: 98 161<306 533> 501 139<223 339>
LayerCount: 2
Fore
SplineSet
422 82 m 0,0,1
 353 82 353 82 295 103 c 128,-1,2
 237 124 237 124 192.5 166.5 c 128,-1,3
 148 209 148 209 123 271.5 c 128,-1,4
 98 334 98 334 98 416.5 c 128,-1,5
 98 499 98 499 124 563 c 128,-1,6
 150 627 150 627 193.5 670.5 c 128,-1,7
 237 714 237 714 295 737 c 128,-1,8
 353 760 353 760 420 760 c 0,9,10
 456 760 456 760 486.5 753 c 128,-1,11
 517 746 517 746 543 734 c 128,-1,12
 569 722 569 722 590.5 706.5 c 128,-1,13
 612 691 612 691 629 675 c 1,14,-1
 545 575 l 1,15,16
 521 597 521 597 493.5 611.5 c 128,-1,17
 466 626 466 626 425 626 c 0,18,19
 389 626 389 626 358.5 612 c 128,-1,20
 328 598 328 598 306 572 c 128,-1,21
 284 546 284 546 271.5 508 c 128,-1,22
 259 470 259 470 259 423 c 0,23,24
 259 325 259 325 303 271 c 128,-1,25
 347 217 347 217 438 217 c 0,26,27
 455 217 455 217 472 221.5 c 128,-1,28
 489 226 489 226 501 234 c 1,29,-1
 501 339 l 1,30,-1
 397 339 l 1,31,-1
 397 467 l 1,32,-1
 640 467 l 1,33,-1
 640 162 l 1,34,35
 623 146 623 146 599 131 c 128,-1,36
 575 116 575 116 547.5 105 c 128,-1,37
 520 94 520 94 488 88 c 128,-1,38
 456 82 456 82 422 82 c 0,0,1
EndSplineSet
Validated: 1
EndChar

StartChar: H
Encoding: 72 72 14
Width: 734
VWidth: 970
Flags: W
HStem: 363 136<289 504> 727 20G<132 289 504 660>
VStem: 132 157<94 363 499 748> 504 156<94 363 499 748>
LayerCount: 2
Fore
SplineSet
132 748 m 1,0,-1
 289 748 l 1,1,-1
 289 499 l 1,2,-1
 504 499 l 1,3,-1
 504 748 l 1,4,-1
 659 748 l 1,5,-1
 659 94 l 1,6,-1
 504 94 l 1,7,-1
 504 363 l 1,8,-1
 289 363 l 1,9,-1
 289 94 l 1,10,-1
 132 94 l 1,11,-1
 132 748 l 1,0,-1
EndSplineSet
Validated: 1
EndChar

StartChar: J
Encoding: 74 74 15
Width: 550
VWidth: 969
Flags: W
HStem: 81 135<190 302> 726 20G<324 481>
VStem: 325 157<237 747>
LayerCount: 2
Fore
SplineSet
267 81 m 0,0,1
 190 81 190 81 138.5 110.5 c 128,-1,2
 87 140 87 140 51 202 c 1,3,-1
 159 282 l 1,4,5
 176 248 176 248 199 232 c 128,-1,6
 222 216 222 216 246 216 c 0,7,8
 284 216 284 216 304.5 239.5 c 128,-1,9
 325 263 325 263 325 327 c 2,10,-1
 325 747 l 1,11,-1
 481 747 l 1,12,-1
 481 314 l 2,13,14
 481 266 481 266 468.5 223.5 c 128,-1,15
 456 181 456 181 429.5 149.5 c 128,-1,16
 403 118 403 118 362.5 99.5 c 128,-1,17
 322 81 322 81 267 81 c 0,0,1
EndSplineSet
Validated: 1
EndChar

StartChar: K
Encoding: 75 75 16
Width: 678
VWidth: 970
Flags: W
HStem: 727 20G<134 291 464 651>
VStem: 134 157<94 266 489 748>
LayerCount: 2
Fore
SplineSet
134 748 m 1,0,-1
 291 748 l 1,1,-1
 291 490 l 1,2,-1
 294 490 l 1,3,-1
 479 748 l 1,4,-1
 651 748 l 1,5,-1
 454 485 l 1,6,-1
 688 94 l 1,7,-1
 516 94 l 1,8,-1
 362 363 l 1,9,-1
 291 265 l 1,10,-1
 291 94 l 1,11,-1
 134 94 l 1,12,-1
 134 748 l 1,0,-1
EndSplineSet
Validated: 1
EndChar

StartChar: L
Encoding: 76 76 17
Width: 569
VWidth: 970
Flags: W
HStem: 94 132<279 533> 727 20G<122 279>
VStem: 122 157<226 748>
LayerCount: 2
Fore
SplineSet
122 748 m 1,0,-1
 279 748 l 1,1,-1
 279 226 l 1,2,-1
 534 226 l 1,3,-1
 534 94 l 1,4,-1
 122 94 l 1,5,-1
 122 748 l 1,0,-1
EndSplineSet
Validated: 1
EndChar

StartChar: M
Encoding: 77 77 18
Width: 833
VWidth: 970
Flags: W
HStem: 727 20G<140 317 582 759>
VStem: 139 140<94 432 492 544> 616 143<94 432 492 544>
LayerCount: 2
Fore
SplineSet
139 748 m 1,0,-1
 309 748 l 1,1,-1
 413 466 l 2,2,3
 423 438 423 438 431 407.5 c 128,-1,4
 439 377 439 377 449 346 c 1,5,-1
 453 346 l 1,6,7
 462 377 462 377 470.5 407 c 128,-1,8
 479 437 479 437 489 466 c 2,9,-1
 589 748 l 1,10,-1
 760 748 l 1,11,-1
 760 94 l 1,12,-1
 616 94 l 1,13,-1
 616 319 l 2,14,15
 616 344 616 344 618.5 372.5 c 128,-1,16
 621 401 621 401 624 431.5 c 128,-1,17
 627 462 627 462 631 492 c 2,18,-1
 637 545 l 1,19,-1
 633 545 l 1,20,-1
 579 388 l 1,21,-1
 490 150 l 1,22,-1
 404 150 l 1,23,-1
 316 388 l 1,24,-1
 263 545 l 1,25,-1
 260 545 l 1,26,-1
 266 492 l 2,27,28
 269 462 269 462 272 431.5 c 128,-1,29
 275 401 275 401 278 372 c 128,-1,30
 281 343 281 343 280 319 c 2,31,-1
 280 94 l 1,32,-1
 139 94 l 1,33,-1
 139 748 l 1,0,-1
EndSplineSet
Validated: 33
EndChar

StartChar: N
Encoding: 78 78 19
Width: 723
VWidth: 970
Flags: W
HStem: 727 20G<131 302 501 650>
VStem: 131 150<94 551> 501 150<291 346 408 748>
LayerCount: 2
Fore
SplineSet
131 748 m 1,0,-1
 291 748 l 1,1,-1
 454 435 l 1,2,-1
 517 290 l 1,3,-1
 522 290 l 1,4,-1
 515 346 l 2,5,6
 512 376 512 376 508.5 407.5 c 128,-1,7
 505 439 505 439 503 471 c 128,-1,8
 501 503 501 503 501 532 c 2,9,-1
 501 748 l 1,10,-1
 650 748 l 1,11,-1
 650 94 l 1,12,-1
 490 94 l 1,13,-1
 329 410 l 1,14,-1
 264 553 l 1,15,-1
 260 553 l 1,16,17
 265 498 265 498 273 434.5 c 128,-1,18
 281 371 281 371 281 311 c 2,19,-1
 281 94 l 1,20,-1
 131 94 l 1,21,-1
 131 748 l 1,0,-1
EndSplineSet
Validated: 1
EndChar

StartChar: P
Encoding: 80 80 20
Width: 654
VWidth: 970
Flags: W
HStem: 311 124<286 436> 624 124<286 441>
VStem: 129 157<94 311 435 624> 468 153<467 598>
LayerCount: 2
Fore
SplineSet
354 435 m 2,0,1
 412 435 412 435 440 460.5 c 128,-1,2
 468 486 468 486 468 535.5 c 128,-1,3
 468 585 468 585 438 604.5 c 128,-1,4
 408 624 408 624 350 624 c 2,5,-1
 286 624 l 1,6,-1
 286 435 l 1,7,-1
 354 435 l 2,0,1
129 748 m 1,8,-1
 358 748 l 2,9,10
 411 748 411 748 459 737 c 128,-1,11
 507 726 507 726 543.5 701.5 c 128,-1,12
 580 677 580 677 600.5 636.5 c 128,-1,13
 621 596 621 596 621 535 c 0,14,15
 621 477 621 477 600 434.5 c 128,-1,16
 579 392 579 392 543 365 c 128,-1,17
 507 338 507 338 461 324.5 c 128,-1,18
 415 311 415 311 362 311 c 2,19,-1
 286 311 l 1,20,-1
 286 94 l 1,21,-1
 129 94 l 1,22,-1
 129 748 l 1,8,-1
EndSplineSet
Validated: 1
EndChar

StartChar: Q
Encoding: 81 81 21
Width: 749
VWidth: 956
Flags: W
HStem: -104 124<543 714> 611 134<334 477>
VStem: 106 161<279 533> 545 160<280 532>
LayerCount: 2
Fore
SplineSet
741 -83 m 1,0,1
 723 -92 723 -92 693 -98 c 128,-1,2
 663 -104 663 -104 624 -104 c 0,3,4
 571 -104 571 -104 525 -91 c 128,-1,5
 479 -78 479 -78 443.5 -54.5 c 128,-1,6
 408 -31 408 -31 380 2 c 128,-1,7
 352 35 352 35 335 75 c 1,8,9
 283 86 283 86 241 114 c 128,-1,10
 199 142 199 142 168.5 184.5 c 128,-1,11
 138 227 138 227 122 284 c 128,-1,12
 106 341 106 341 106 410 c 0,13,14
 106 490 106 490 128 552.5 c 128,-1,15
 150 615 150 615 189 657.5 c 128,-1,16
 228 700 228 700 283.5 723 c 128,-1,17
 339 746 339 746 405.5 746 c 128,-1,18
 472 746 472 746 527.5 723 c 128,-1,19
 583 700 583 700 622.5 657 c 128,-1,20
 662 614 662 614 683.5 552 c 128,-1,21
 705 490 705 490 705 410 c 0,22,23
 705 345 705 345 690.5 291 c 128,-1,24
 676 237 676 237 649.5 195 c 128,-1,25
 623 153 623 153 585 124 c 128,-1,26
 547 95 547 95 500 81 c 1,27,28
 511 65 511 65 527 52.5 c 128,-1,29
 543 40 543 40 562 33.5 c 128,-1,30
 581 27 581 27 601 23.5 c 128,-1,31
 621 20 621 20 641.5 20 c 128,-1,32
 662 20 662 20 680.5 23.5 c 128,-1,33
 699 27 699 27 715 32 c 1,34,-1
 741 -83 l 1,0,1
267 410 m 0,35,36
 267 308 267 308 304 252 c 128,-1,37
 341 196 341 196 405.5 196 c 128,-1,38
 470 196 470 196 507.5 251.5 c 128,-1,39
 545 307 545 307 545 410 c 0,40,41
 545 505 545 505 507.5 558 c 128,-1,42
 470 611 470 611 405.5 611 c 128,-1,43
 341 611 341 611 304 558 c 128,-1,44
 267 505 267 505 267 410 c 0,35,36
EndSplineSet
Validated: 1
EndChar

StartChar: R
Encoding: 82 82 22
Width: 675
VWidth: 970
Flags: W
HStem: 325 124<289 365> 624 124<289 451>
VStem: 132 157<94 324 448 624> 473 154<478 601>
LayerCount: 2
Fore
SplineSet
485 94 m 1,0,-1
 365 325 l 1,1,-1
 289 325 l 1,2,-1
 289 94 l 1,3,-1
 132 94 l 1,4,-1
 132 748 l 1,5,-1
 372 748 l 2,6,7
 424 748 424 748 470 737.5 c 128,-1,8
 516 727 516 727 551.5 703.5 c 128,-1,9
 587 680 587 680 607 640.5 c 128,-1,10
 627 601 627 601 627 542 c 0,11,12
 627 470 627 470 596 423.5 c 128,-1,13
 565 377 565 377 515 353 c 1,14,-1
 660 94 l 1,15,-1
 485 94 l 1,0,-1
289 449 m 1,16,-1
 359 449 l 2,17,18
 473 449 473 449 473 542 c 0,19,20
 473 588 473 588 444.5 606 c 128,-1,21
 416 624 416 624 359 624 c 2,22,-1
 289 624 l 1,23,-1
 289 449 l 1,16,-1
EndSplineSet
Validated: 1
EndChar

StartChar: T
Encoding: 84 84 23
Width: 607
VWidth: 970
Flags: W
HStem: 618 130<72 249 406 583>
VStem: 249 157<94 618>
LayerCount: 2
Fore
SplineSet
249 618 m 1,0,-1
 73 618 l 1,1,-1
 73 748 l 1,2,-1
 583 748 l 1,3,-1
 583 618 l 1,4,-1
 406 618 l 1,5,-1
 406 94 l 1,6,-1
 249 94 l 1,7,-1
 249 618 l 1,0,-1
EndSplineSet
Validated: 1
EndChar

StartChar: U
Encoding: 85 85 24
Width: 722
VWidth: 969
Flags: W
HStem: 81 135<326 461> 726 20G<128 284 504 655>
VStem: 128 157<265 747> 504 151<265 747>
LayerCount: 2
Fore
SplineSet
393 81 m 0,0,1
 261 81 261 81 194.5 158 c 128,-1,2
 128 235 128 235 128 400 c 2,3,-1
 128 747 l 1,4,-1
 285 747 l 1,5,-1
 285 384 l 2,6,7
 285 338 285 338 291.5 305.5 c 128,-1,8
 298 273 298 273 312 253.5 c 128,-1,9
 326 234 326 234 346 225 c 128,-1,10
 366 216 366 216 392.5 216 c 128,-1,11
 419 216 419 216 440 225 c 128,-1,12
 461 234 461 234 474.5 253.5 c 128,-1,13
 488 273 488 273 496 305 c 128,-1,14
 504 337 504 337 504 384 c 2,15,-1
 504 747 l 1,16,-1
 654 747 l 1,17,-1
 654 400 l 2,18,19
 654 234 654 234 589 157.5 c 128,-1,20
 524 81 524 81 393 81 c 0,0,1
EndSplineSet
Validated: 1
EndChar

StartChar: V
Encoding: 86 86 25
Width: 609
VWidth: 970
Flags: W
HStem: 727 20G<39 210 455 619>
LayerCount: 2
Fore
SplineSet
39 748 m 1,0,-1
 205 748 l 1,1,-1
 280 450 l 2,2,3
 293 398 293 398 304 346.5 c 128,-1,4
 315 295 315 295 331 241 c 1,5,-1
 335 241 l 1,6,7
 349 294 349 294 361 345.5 c 128,-1,8
 373 397 373 397 386 450 c 2,9,-1
 460 748 l 1,10,-1
 620 748 l 1,11,-1
 423 94 l 1,12,-1
 234 94 l 1,13,-1
 39 748 l 1,0,-1
EndSplineSet
Validated: 1
EndChar

StartChar: W
Encoding: 87 87 26
Width: 886
VWidth: 970
Flags: W
HStem: 727 20G<80 244 413 554 724 876>
LayerCount: 2
Fore
SplineSet
81 748 m 1,0,-1
 242 748 l 1,1,-1
 283 450 l 1,2,-1
 309 243 l 1,3,-1
 312 243 l 1,4,5
 321 295 321 295 330.5 347 c 128,-1,6
 340 399 340 399 351 450 c 2,7,-1
 418 748 l 1,8,-1
 549 748 l 1,9,-1
 617 450 l 2,10,11
 628 400 628 400 637 347.5 c 128,-1,12
 646 295 646 295 655 243 c 1,13,-1
 659 243 l 1,14,-1
 672 347 l 2,15,16
 677 399 677 399 684 450 c 2,17,-1
 727 748 l 1,18,-1
 876 748 l 1,19,-1
 763 94 l 1,20,-1
 565 94 l 1,21,-1
 506 379 l 2,22,23
 498 417 498 417 491.5 455.5 c 128,-1,24
 485 494 485 494 481 530 c 1,25,-1
 476 530 l 1,26,-1
 464 455 l 2,27,28
 458 416 458 416 451 379 c 2,29,-1
 394 94 l 1,30,-1
 200 94 l 1,31,-1
 81 748 l 1,0,-1
EndSplineSet
Validated: 1
EndChar

StartChar: X
Encoding: 88 88 27
Width: 623
VWidth: 970
Flags: W
HStem: 727 20G<69 253 429 603>
LayerCount: 2
Fore
SplineSet
239 430 m 1,0,-1
 69 748 l 1,1,-1
 244 748 l 1,2,-1
 296 631 l 2,3,4
 306 608 306 608 318 582 c 2,5,-1
 344 523 l 1,6,-1
 347 523 l 1,7,8
 358 555 358 555 370 582 c 2,9,-1
 437 748 l 1,10,-1
 603 748 l 1,11,-1
 434 424 l 1,12,-1
 614 94 l 1,13,-1
 439 94 l 1,14,-1
 379 221 l 2,15,16
 367 247 367 247 355 273 c 2,17,-1
 331 331 l 1,18,-1
 327 331 l 1,19,-1
 304 273 l 1,20,-1
 283 221 l 1,21,-1
 226 94 l 1,22,-1
 58 94 l 1,23,-1
 239 430 l 1,0,-1
EndSplineSet
Validated: 1
EndChar

StartChar: Y
Encoding: 89 89 28
Width: 576
VWidth: 970
Flags: W
HStem: 727 20G<37 211 415 587>
VStem: 233 157<94 325>
LayerCount: 2
Fore
SplineSet
233 326 m 1,0,-1
 37 748 l 1,1,-1
 204 748 l 1,2,-1
 258 602 l 2,3,4
 272 565 272 565 284 530 c 2,5,-1
 310 457 l 1,6,-1
 314 457 l 1,7,-1
 341 530 l 1,8,-1
 423 748 l 1,9,-1
 587 748 l 1,10,-1
 390 326 l 1,11,-1
 390 94 l 1,12,-1
 233 94 l 1,13,-1
 233 326 l 1,0,-1
EndSplineSet
Validated: 1
EndChar

StartChar: a
Encoding: 97 97 29
Width: 573
VWidth: 958
Flags: W
HStem: 70 121<215 320> 469 125<199 343>
VStem: 84 148<199 275> 361 157<210 310>
LayerCount: 2
Fore
SplineSet
286 191 m 0,0,1
 310 191 310 191 327 201 c 128,-1,2
 344 211 344 211 361 229 c 1,3,-1
 361 309 l 1,4,5
 288 300 288 300 260 280 c 128,-1,6
 232 260 232 260 232 234 c 0,7,8
 232 212 232 212 246.5 201.5 c 128,-1,9
 261 191 261 191 286 191 c 0,0,1
232 70 m 0,10,11
 198 70 198 70 170.5 81.5 c 128,-1,12
 143 93 143 93 123.5 113.5 c 128,-1,13
 104 134 104 134 94 162 c 128,-1,14
 84 190 84 190 84 221 c 0,15,16
 84 261 84 261 100 291.5 c 128,-1,17
 116 322 116 322 149.5 344.5 c 128,-1,18
 183 367 183 367 236 381.5 c 128,-1,19
 289 396 289 396 361 405 c 1,20,21
 358 436 358 436 341.5 452.5 c 128,-1,22
 325 469 325 469 286 469 c 0,23,24
 256 469 256 469 225 457.5 c 128,-1,25
 194 446 194 446 156 425 c 1,26,-1
 101 527 l 1,27,28
 151 557 151 557 204 575 c 128,-1,29
 257 593 257 593 316 594 c 0,30,31
 413 594 413 594 465.5 538 c 128,-1,32
 518 482 518 482 518 366 c 2,33,-1
 518 82 l 1,34,-1
 390 82 l 1,35,-1
 379 131 l 1,36,-1
 376 131 l 1,37,38
 345 103 345 103 309.5 86.5 c 128,-1,39
 274 70 274 70 232 70 c 0,10,11
EndSplineSet
Validated: 1
EndChar

StartChar: b
Encoding: 98 98 30
Width: 626
VWidth: 973
Flags: W
HStem: 85 128<303 396> 482 127<309 403>
VStem: 114 156<226 461 556 799> 429 161<250 455>
LayerCount: 2
Fore
SplineSet
343 213 m 256,0,1
 360 213 360 213 376 221 c 128,-1,2
 392 229 392 229 404.5 245.5 c 128,-1,3
 417 262 417 262 423 288.5 c 128,-1,4
 429 315 429 315 429 352 c 0,5,6
 429 418 429 418 410 450 c 128,-1,7
 391 482 391 482 348 482 c 0,8,9
 326 482 326 482 307.5 472 c 128,-1,10
 289 462 289 462 269 439 c 1,11,-1
 269 242 l 1,12,13
 287 226 287 226 306.5 219.5 c 128,-1,14
 326 213 326 213 343 213 c 256,0,1
380 85 m 0,15,16
 346 85 346 85 313.5 101.5 c 128,-1,17
 281 118 281 118 251 151 c 1,18,-1
 248 151 l 1,19,-1
 236 97 l 1,20,-1
 114 97 l 1,21,-1
 114 799 l 1,22,-1
 269 799 l 1,23,-1
 269 630 l 1,24,-1
 265 556 l 1,25,26
 293 582 293 582 326.5 595.5 c 128,-1,27
 360 609 360 609 394 609 c 0,28,29
 439 609 439 609 475 591.5 c 128,-1,30
 511 574 511 574 537 540.5 c 128,-1,31
 563 507 563 507 576.5 460.5 c 128,-1,32
 590 414 590 414 590 356 c 0,33,34
 590 291 590 291 572.5 241 c 128,-1,35
 555 191 555 191 526 156 c 128,-1,36
 497 121 497 121 458.5 103 c 128,-1,37
 420 85 420 85 380 85 c 0,15,16
EndSplineSet
Validated: 1
EndChar

StartChar: c
Encoding: 99 99 31
Width: 509
VWidth: 958
Flags: W
HStem: 70 126<279 410> 467 126<280 421>
VStem: 76 160<243 420>
LayerCount: 2
Fore
SplineSet
324 70 m 0,0,1
 272 70 272 70 226 87.5 c 128,-1,2
 180 105 180 105 146.5 138.5 c 128,-1,3
 113 172 113 172 94.5 220 c 128,-1,4
 76 268 76 268 76 330.5 c 128,-1,5
 76 393 76 393 97.5 442 c 128,-1,6
 119 491 119 491 154.5 524.5 c 128,-1,7
 190 558 190 558 237.5 575.5 c 128,-1,8
 285 593 285 593 338 593 c 0,9,10
 384 593 384 593 420 578.5 c 128,-1,11
 456 564 456 564 483 540 c 1,12,-1
 411 439 l 1,13,14
 394 454 394 454 379 460.5 c 128,-1,15
 364 467 364 467 346 467 c 0,16,17
 294 467 294 467 265 430.5 c 128,-1,18
 236 394 236 394 236 331 c 128,-1,19
 236 268 236 268 265.5 232 c 128,-1,20
 295 196 295 196 341 196 c 0,21,22
 365 196 365 196 387 206 c 128,-1,23
 409 216 409 216 428 230 c 1,24,-1
 487 128 l 1,25,26
 450 95 450 95 407 82.5 c 128,-1,27
 364 70 364 70 324 70 c 0,0,1
EndSplineSet
Validated: 1
EndChar

StartChar: d
Encoding: 100 100 32
Width: 621
VWidth: 973
Flags: W
HStem: 85 128<275 368> 482 127<278 373>
VStem: 84 161<246 445> 404 157<229 469 557 799>
LayerCount: 2
Fore
SplineSet
330 213 m 0,0,1
 353 213 353 213 370.5 221.5 c 128,-1,2
 388 230 388 230 404 255 c 1,3,-1
 404 452 l 1,4,5
 387 468 387 468 367 475 c 128,-1,6
 347 482 347 482 327 482 c 0,7,8
 312 482 312 482 297 474 c 128,-1,9
 282 466 282 466 270 449.5 c 128,-1,10
 258 433 258 433 251.5 408 c 128,-1,11
 245 383 245 383 245 349 c 0,12,13
 245 277 245 277 267.5 245 c 128,-1,14
 290 213 290 213 330 213 c 0,0,1
289 85 m 0,15,16
 243 85 243 85 204.5 103 c 128,-1,17
 166 121 166 121 139.5 154.5 c 128,-1,18
 113 188 113 188 98.5 237 c 128,-1,19
 84 286 84 286 84 347 c 128,-1,20
 84 408 84 408 101.5 457 c 128,-1,21
 119 506 119 506 148 540 c 128,-1,22
 177 574 177 574 214.5 591.5 c 128,-1,23
 252 609 252 609 290 609 c 0,24,25
 332 609 332 609 359 595 c 128,-1,26
 386 581 386 581 411 557 c 1,27,-1
 404 632 l 1,28,-1
 404 799 l 1,29,-1
 561 799 l 1,30,-1
 561 97 l 1,31,-1
 434 97 l 1,32,-1
 423 145 l 1,33,-1
 419 145 l 1,34,35
 392 118 392 118 358.5 101.5 c 128,-1,36
 325 85 325 85 289 85 c 0,15,16
EndSplineSet
Validated: 1
EndChar

StartChar: e
Encoding: 101 101 33
Width: 565
VWidth: 958
Flags: W
HStem: 70 120<274 442> 285 101<230 397> 474 120<260 377>
VStem: 397 132<387 449>
LayerCount: 2
Fore
SplineSet
397 386 m 1,0,1
 397 424 397 424 379 449 c 128,-1,2
 361 474 361 474 318 474 c 0,3,4
 285 474 285 474 259.5 453 c 128,-1,5
 234 432 234 432 227 386 c 1,6,-1
 397 386 l 1,0,1
332 70 m 0,7,8
 279 70 279 70 232 87.5 c 128,-1,9
 185 105 185 105 151 138.5 c 128,-1,10
 117 172 117 172 98 220 c 128,-1,11
 79 268 79 268 79 329.5 c 128,-1,12
 79 391 79 391 99 440 c 128,-1,13
 119 489 119 489 151.5 523 c 128,-1,14
 184 557 184 557 227 575 c 128,-1,15
 270 593 270 593 315 594 c 0,16,17
 368 594 368 594 409 575 c 128,-1,18
 450 556 450 556 477 524 c 128,-1,19
 504 492 504 492 516.5 447 c 128,-1,20
 529 402 529 402 529 352 c 0,21,22
 529 332 529 332 527 313 c 128,-1,23
 525 294 525 294 522 285 c 1,24,-1
 229 285 l 1,25,26
 239 233 239 233 273 210.5 c 128,-1,27
 307 188 307 188 354 190 c 0,28,29
 382 190 382 190 407 197.5 c 128,-1,30
 432 205 432 205 460 220 c 1,31,-1
 511 126 l 1,32,33
 471 98 471 98 424 84 c 128,-1,34
 377 70 377 70 332 70 c 0,7,8
EndSplineSet
Validated: 33
EndChar

StartChar: f
Encoding: 102 102 34
Width: 381
VWidth: 975
Flags: W
HStem: 477 122<56 123 279 368> 691 122<295 385>
VStem: 123 157<99 477 599 675>
LayerCount: 2
Fore
SplineSet
386 681 m 1,0,1
 374 685 374 685 360.5 688 c 128,-1,2
 347 691 347 691 335 691 c 0,3,4
 309 691 309 691 294.5 676 c 128,-1,5
 280 661 280 661 280 623 c 2,6,-1
 280 599 l 1,7,-1
 368 599 l 1,8,-1
 368 477 l 1,9,-1
 280 477 l 1,10,-1
 280 99 l 1,11,-1
 123 99 l 1,12,-1
 123 477 l 1,13,-1
 56 477 l 1,14,-1
 56 593 l 1,15,-1
 123 598 l 1,16,-1
 123 619 l 2,17,18
 123 659 123 659 133 694 c 128,-1,19
 143 729 143 729 165.5 755 c 128,-1,20
 188 781 188 781 224 797 c 128,-1,21
 260 813 260 813 312 813 c 0,22,23
 346 813 346 813 371 808 c 128,-1,24
 396 803 396 803 414 796 c 1,25,-1
 386 681 l 1,0,1
EndSplineSet
Validated: 1
EndChar

StartChar: h
Encoding: 104 104 35
Width: 624
VWidth: 973
Flags: W
HStem: 477 133<322 433>
VStem: 112 156<98 452 543 800> 412 157<98 458>
LayerCount: 2
Fore
SplineSet
112 800 m 1,0,-1
 267 800 l 1,1,-1
 267 631 l 1,2,-1
 260 543 l 1,3,4
 288 569 288 569 324.5 589.5 c 128,-1,5
 361 610 361 610 413 610 c 0,6,7
 453 610 453 610 482.5 596 c 128,-1,8
 512 582 512 582 531.5 555.5 c 128,-1,9
 551 529 551 529 559.5 491.5 c 128,-1,10
 568 454 568 454 568 408 c 2,11,-1
 568 98 l 1,12,-1
 412 98 l 1,13,-1
 412 388 l 2,14,15
 412 440 412 440 398 458.5 c 128,-1,16
 384 477 384 477 354 477 c 0,17,18
 327 477 327 477 308.5 465.5 c 128,-1,19
 290 454 290 454 267 432 c 1,20,-1
 267 98 l 1,21,-1
 112 98 l 1,22,-1
 112 800 l 1,0,-1
EndSplineSet
Validated: 1
EndChar

StartChar: i
Encoding: 105 105 36
Width: 303
VWidth: 976
Flags: W
HStem: 670 161<101 228>
VStem: 75 178<695 805> 87 156<101 600>
LayerCount: 2
Fore
SplineSet
165 670 m 256,0,1
 125 670 125 670 100 692.5 c 128,-1,2
 75 715 75 715 75 750 c 128,-1,3
 75 785 75 785 100 808 c 128,-1,4
 125 831 125 831 165 831 c 128,-1,5
 205 831 205 831 229.5 808 c 128,-1,6
 254 785 254 785 253.5 750 c 128,-1,7
 253 715 253 715 229 692.5 c 128,-1,8
 205 670 205 670 165 670 c 256,0,1
87 600 m 1,9,-1
 243 600 l 1,10,-1
 243 100 l 1,11,-1
 87 100 l 1,12,-1
 87 600 l 1,9,-1
EndSplineSet
Validated: 33
EndChar

StartChar: j
Encoding: 106 106 37
Width: 296
VWidth: 960
Flags: W
HStem: -110 122<-11 67> 653 161<94 221>
VStem: 68 179<679 789> 79 157<32 584>
LayerCount: 2
Fore
SplineSet
158 653 m 0,0,1
 118 653 118 653 93 675.5 c 128,-1,2
 68 698 68 698 68 733.5 c 128,-1,3
 68 769 68 769 93.5 791.5 c 128,-1,4
 119 814 119 814 158 814 c 128,-1,5
 197 814 197 814 222 791.5 c 128,-1,6
 247 769 247 769 247 733.5 c 128,-1,7
 247 698 247 698 222 675.5 c 128,-1,8
 197 653 197 653 158 653 c 0,0,1
52 -110 m 0,9,10
 19 -110 19 -110 -1.5 -105.5 c 128,-1,11
 -22 -101 -22 -101 -38 -95 c 1,12,-1
 -10 20 l 1,13,14
 12 13 12 13 28 12 c 0,15,16
 57 12 57 12 68 30.5 c 128,-1,17
 79 49 79 49 79 91 c 2,18,-1
 79 584 l 1,19,-1
 236 584 l 1,20,-1
 236 96 l 2,21,22
 236 55 236 55 227 17.5 c 128,-1,23
 218 -20 218 -20 196.5 -48 c 128,-1,24
 175 -76 175 -76 139.5 -93 c 128,-1,25
 104 -110 104 -110 52 -110 c 0,9,10
EndSplineSet
Validated: 1
EndChar

StartChar: k
Encoding: 107 107 38
Width: 606
VWidth: 973
Flags: W
VStem: 115 152<98 220 408 800>
LayerCount: 2
Fore
SplineSet
115 800 m 1,0,-1
 266 800 l 1,1,-1
 266 409 l 1,2,-1
 269 409 l 1,3,-1
 422 598 l 1,4,-1
 591 598 l 1,5,-1
 415 391 l 1,6,-1
 603 98 l 1,7,-1
 434 98 l 1,8,-1
 326 288 l 1,9,-1
 266 220 l 1,10,-1
 266 98 l 1,11,-1
 115 98 l 1,12,-1
 115 800 l 1,0,-1
EndSplineSet
Validated: 1
EndChar

StartChar: m
Encoding: 109 109 39
Width: 934
VWidth: 959
Flags: W
HStem: 461 133<343 456 639 742> 561 20G<136 266>
VStem: 135 156<83 436> 428 157<83 436> 722 157<83 442>
LayerCount: 2
Fore
SplineSet
135 582 m 1,0,-1
 263 582 l 1,1,-1
 273 519 l 1,2,-1
 276 519 l 1,3,4
 307 550 307 550 342.5 572 c 128,-1,5
 378 594 378 594 429.5 594 c 128,-1,6
 481 594 481 594 514 573 c 128,-1,7
 547 552 547 552 565 512 c 1,8,9
 580 528 580 528 597.5 543 c 128,-1,10
 615 558 615 558 634.5 570 c 128,-1,11
 654 582 654 582 675 588 c 128,-1,12
 696 594 696 594 722 594 c 0,13,14
 762 594 762 594 792 580 c 128,-1,15
 822 566 822 566 841 540 c 128,-1,16
 860 514 860 514 869.5 476 c 128,-1,17
 879 438 879 438 879 391 c 2,18,-1
 879 83 l 1,19,-1
 722 83 l 1,20,-1
 722 373 l 2,21,22
 722 425 722 425 708 443 c 128,-1,23
 694 461 694 461 665 461 c 0,24,25
 629 461 629 461 585 416 c 1,26,-1
 585 83 l 1,27,-1
 428 83 l 1,28,-1
 428 373 l 2,29,30
 428 425 428 425 414 443 c 128,-1,31
 400 461 400 461 371 461 c 0,32,33
 335 461 335 461 291 416 c 1,34,-1
 291 83 l 1,35,-1
 135 83 l 1,36,-1
 135 582 l 1,0,-1
EndSplineSet
Validated: 1
EndChar

StartChar: n
Encoding: 110 110 40
Width: 624
VWidth: 959
Flags: W
HStem: 461 133<322 433> 561 20G<112 242>
VStem: 112 156<83 436> 412 157<83 442>
LayerCount: 2
Fore
SplineSet
112 582 m 1,0,-1
 239 582 l 1,1,-1
 250 520 l 1,2,-1
 253 520 l 1,3,4
 284 551 284 551 322.5 572.5 c 128,-1,5
 361 594 361 594 413 594 c 0,6,7
 453 594 453 594 482.5 580 c 128,-1,8
 512 566 512 566 531.5 540 c 128,-1,9
 551 514 551 514 559.5 476 c 128,-1,10
 568 438 568 438 568 391 c 2,11,-1
 568 83 l 1,12,-1
 412 83 l 1,13,-1
 412 373 l 2,14,15
 412 425 412 425 398 443 c 128,-1,16
 384 461 384 461 354 461 c 0,17,18
 327 461 327 461 308.5 449.5 c 128,-1,19
 290 438 290 438 267 416 c 1,20,-1
 267 83 l 1,21,-1
 112 83 l 1,22,-1
 112 582 l 1,0,-1
EndSplineSet
Validated: 1
EndChar

StartChar: p
Encoding: 112 112 41
Width: 626
VWidth: 944
Flags: W
HStem: -115 22G<113 269> 55 128<301 396> 452 127<310 404> 547 20G<113 245>
VStem: 114 156<-114 107 196 431> 429 161<220 425>
LayerCount: 2
Fore
SplineSet
343 183 m 256,0,1
 360 183 360 183 376 191 c 128,-1,2
 392 199 392 199 404.5 216 c 128,-1,3
 417 233 417 233 423 259 c 128,-1,4
 429 285 429 285 429 323 c 0,5,6
 429 389 429 389 410 420.5 c 128,-1,7
 391 452 391 452 348 452 c 0,8,9
 326 452 326 452 307.5 442 c 128,-1,10
 289 432 289 432 269 410 c 1,11,-1
 269 212 l 1,12,13
 287 196 287 196 306.5 189.5 c 128,-1,14
 326 183 326 183 343 183 c 256,0,1
114 567 m 1,15,-1
 241 567 l 1,16,-1
 251 519 l 1,17,-1
 255 519 l 1,18,19
 285 546 285 546 320 563 c 128,-1,20
 355 580 355 580 395 579 c 0,21,22
 440 579 440 579 476 561.5 c 128,-1,23
 512 544 512 544 537.5 510 c 128,-1,24
 563 476 563 476 576.5 429.5 c 128,-1,25
 590 383 590 383 590 326 c 0,26,27
 590 261 590 261 572.5 211 c 128,-1,28
 555 161 555 161 526 126 c 128,-1,29
 497 91 497 91 459 73 c 128,-1,30
 421 55 421 55 380 55 c 0,31,32
 315 55 315 55 264 107 c 1,33,-1
 269 29 l 1,34,-1
 269 -115 l 1,35,-1
 114 -115 l 1,36,-1
 114 567 l 1,15,-1
EndSplineSet
Validated: 33
EndChar

StartChar: q
Encoding: 113 113 42
Width: 621
VWidth: 944
Flags: W
HStem: -115 22G<404 561> 55 128<275 369> 452 127<278 377> 547 20G<434 561>
VStem: 84 161<216 415> 404 157<-114 109 200 439>
LayerCount: 2
Fore
SplineSet
330 183 m 0,0,1
 353 183 353 183 370.5 192 c 128,-1,2
 388 201 388 201 404 225 c 1,3,-1
 404 422 l 1,4,5
 387 438 387 438 367 445 c 128,-1,6
 347 452 347 452 327 452 c 0,7,8
 312 452 312 452 297 444 c 128,-1,9
 282 436 282 436 270 420 c 128,-1,10
 258 404 258 404 251.5 378.5 c 128,-1,11
 245 353 245 353 245 320 c 0,12,13
 245 248 245 248 267.5 215.5 c 128,-1,14
 290 183 290 183 330 183 c 0,0,1
404 34 m 1,15,-1
 411 109 l 1,16,17
 387 85 387 85 354 70 c 128,-1,18
 321 55 321 55 289 55 c 0,19,20
 243 55 243 55 204.5 73 c 128,-1,21
 166 91 166 91 139.5 125 c 128,-1,22
 113 159 113 159 98.5 207.5 c 128,-1,23
 84 256 84 256 84 317 c 128,-1,24
 84 378 84 378 101.5 426.5 c 128,-1,25
 119 475 119 475 148 509.5 c 128,-1,26
 177 544 177 544 214.5 562 c 128,-1,27
 252 580 252 580 290 579 c 0,28,29
 331 579 331 579 362 564.5 c 128,-1,30
 393 550 393 550 422 517 c 1,31,-1
 426 517 l 1,32,-1
 439 567 l 1,33,-1
 561 567 l 1,34,-1
 561 -115 l 1,35,-1
 404 -115 l 1,36,-1
 404 34 l 1,15,-1
EndSplineSet
Validated: 33
EndChar

StartChar: r
Encoding: 114 114 43
Width: 445
VWidth: 959
Flags: W
HStem: 458 137<314 420> 561 20G<102 232>
VStem: 102 156<83 409> 102 127<523 582>
LayerCount: 2
Fore
SplineSet
102 582 m 1,0,-1
 229 582 l 1,1,-1
 241 496 l 1,2,-1
 244 496 l 1,3,4
 272 546 272 546 310 570 c 128,-1,5
 348 594 348 594 386 595 c 0,6,7
 409 595 409 595 422.5 591.5 c 128,-1,8
 436 588 436 588 446 584 c 1,9,-1
 420 450 l 1,10,11
 407 453 407 453 394.5 455.5 c 128,-1,12
 382 458 382 458 366 458 c 0,13,14
 338 458 338 458 308 438 c 128,-1,15
 278 418 278 418 258 368 c 1,16,-1
 258 83 l 1,17,-1
 102 83 l 1,18,-1
 102 582 l 1,0,-1
EndSplineSet
Validated: 1
EndChar

StartChar: s
Encoding: 115 115 44
Width: 483
VWidth: 958
Flags: W
HStem: 70 115<173 302> 478 115<231 353>
VStem: 82 145<412 473> 311 145<193 254>
LayerCount: 2
Fore
SplineSet
249 70 m 0,0,1
 224 70 224 70 198.5 74.5 c 128,-1,2
 173 79 173 79 147.5 88 c 128,-1,3
 122 97 122 97 99 110.5 c 128,-1,4
 76 124 76 124 57 139 c 1,5,-1
 126 237 l 1,6,7
 195 185 195 185 253 184 c 0,8,9
 284 184 284 184 297.5 194.5 c 128,-1,10
 311 205 311 205 311 223 c 0,11,12
 311 234 311 234 303 243 c 128,-1,13
 295 252 295 252 280.5 259 c 128,-1,14
 266 266 266 266 248.5 273 c 128,-1,15
 231 280 231 280 212 288 c 0,16,17
 189 297 189 297 166 309.5 c 128,-1,18
 143 322 143 322 124.5 339 c 128,-1,19
 106 356 106 356 94 380 c 128,-1,20
 82 404 82 404 82 434 c 0,21,22
 82 469 82 469 96.5 498.5 c 128,-1,23
 111 528 111 528 136 549 c 128,-1,24
 161 570 161 570 196 581.5 c 128,-1,25
 231 593 231 593 275 593 c 0,26,27
 334 593 334 593 377.5 573.5 c 128,-1,28
 421 554 421 554 455 529 c 1,29,-1
 384 436 l 1,30,31
 357 454 357 454 331.5 466 c 128,-1,32
 306 478 306 478 281 478 c 0,33,34
 229 478 229 478 227 442 c 0,35,36
 227 431 227 431 235.5 423 c 128,-1,37
 244 415 244 415 257.5 408.5 c 128,-1,38
 271 402 271 402 289 396 c 2,39,-1
 326 383 l 2,40,41
 350 374 350 374 372.5 362 c 128,-1,42
 395 350 395 350 414 332.5 c 128,-1,43
 433 315 433 315 445 290.5 c 128,-1,44
 457 266 457 266 457 232.5 c 128,-1,45
 457 199 457 199 444 168.5 c 128,-1,46
 431 138 431 138 404.5 116 c 128,-1,47
 378 94 378 94 339 82 c 128,-1,48
 300 70 300 70 249 70 c 0,0,1
EndSplineSet
Validated: 1
EndChar

StartChar: t
Encoding: 116 116 45
Width: 420
VWidth: 967
Flags: W
HStem: 79 122<290 377> 469 122<48 116 272 390>
VStem: 116 157<219 469>
LayerCount: 2
Fore
SplineSet
292 79 m 0,0,1
 245 79 245 79 211.5 93.5 c 128,-1,2
 178 108 178 108 157 133.5 c 128,-1,3
 136 159 136 159 126 195 c 128,-1,4
 116 231 116 231 116 277 c 2,5,-1
 116 469 l 1,6,-1
 48 469 l 1,7,-1
 48 585 l 1,8,-1
 125 591 l 1,9,-1
 142 723 l 1,10,-1
 272 723 l 1,11,-1
 272 591 l 1,12,-1
 390 591 l 1,13,-1
 390 469 l 1,14,-1
 272 469 l 1,15,-1
 272 279 l 2,16,17
 272 237 272 237 289.5 219 c 128,-1,18
 307 201 307 201 335 201 c 0,19,20
 347 201 347 201 359 205 c 2,21,-1
 381 210 l 1,22,-1
 406 97 l 1,23,24
 386 91 386 91 358.5 85 c 128,-1,25
 331 79 331 79 292 79 c 0,0,1
EndSplineSet
Validated: 1
EndChar

StartChar: u
Encoding: 117 117 46
Width: 620
VWidth: 956
Flags: W
HStem: 69 133<220 350> 559 20G<105 262 403 559>
VStem: 105 157<221 580> 403 157<226 580>
LayerCount: 2
Fore
SplineSet
261 69 m 0,0,1
 179 69 179 69 142 123 c 128,-1,2
 105 177 105 177 105 271 c 2,3,-1
 105 580 l 1,4,-1
 262 580 l 1,5,-1
 262 290 l 2,6,7
 262 238 262 238 276 220 c 128,-1,8
 290 202 290 202 319 202 c 0,9,10
 346 202 346 202 364.5 213 c 128,-1,11
 383 224 383 224 403 253 c 1,12,-1
 403 580 l 1,13,-1
 560 580 l 1,14,-1
 560 81 l 1,15,-1
 432 81 l 1,16,-1
 421 149 l 1,17,-1
 417 149 l 1,18,19
 386 112 386 112 349.5 90.5 c 128,-1,20
 313 69 313 69 261 69 c 0,0,1
EndSplineSet
Validated: 1
EndChar

StartChar: v
Encoding: 118 118 47
Width: 575
VWidth: 958
Flags: W
HStem: 560 20G<57 219 409 565>
LayerCount: 2
Fore
SplineSet
56 581 m 1,0,-1
 214 581 l 1,1,-1
 274 351 l 2,2,3
 283 314 283 314 294 276 c 2,4,-1
 312 198 l 1,5,-1
 316 198 l 1,6,7
 325 238 325 238 334.5 276 c 128,-1,8
 344 314 344 314 353 351 c 2,9,-1
 415 581 l 1,10,-1
 565 581 l 1,11,-1
 403 82 l 1,12,-1
 222 82 l 1,13,-1
 56 581 l 1,0,-1
EndSplineSet
Validated: 1
EndChar

StartChar: w
Encoding: 119 119 48
Width: 850
VWidth: 958
Flags: W
HStem: 560 20G<90 249 390 535 680 828>
LayerCount: 2
Fore
SplineSet
90 581 m 1,0,-1
 245 581 l 1,1,-1
 290 357 l 2,2,3
 297 320 297 320 300.5 283 c 128,-1,4
 304 246 304 246 310 208 c 1,5,-1
 314 208 l 1,6,-1
 329 284 l 2,7,8
 335 321 335 321 344 357 c 2,9,-1
 394 581 l 1,10,-1
 530 581 l 1,11,-1
 584 357 l 2,12,13
 593 320 593 320 599.5 283 c 128,-1,14
 606 246 606 246 614 208 c 1,15,-1
 618 208 l 1,16,17
 624 246 624 246 629 283.5 c 128,-1,18
 634 321 634 321 641 357 c 2,19,-1
 684 581 l 1,20,-1
 828 581 l 1,21,-1
 711 82 l 1,22,-1
 528 82 l 1,23,-1
 486 272 l 2,24,25
 478 307 478 307 473 342 c 2,26,-1
 460 419 l 1,27,-1
 456 419 l 1,28,-1
 443 342 l 2,29,30
 438 307 438 307 431 272 c 2,31,-1
 391 82 l 1,32,-1
 213 82 l 1,33,-1
 90 581 l 1,0,-1
EndSplineSet
Validated: 1
EndChar

StartChar: x
Encoding: 120 120 49
Width: 567
VWidth: 958
Flags: W
HStem: 560 20G<66 245 376 546>
LayerCount: 2
Fore
SplineSet
211 341 m 1,0,-1
 67 581 l 1,1,-1
 234 581 l 1,2,-1
 275 504 l 2,3,4
 286 484 286 484 296 461.5 c 128,-1,5
 306 439 306 439 316 419 c 1,6,-1
 322 419 l 1,7,8
 329 441 329 441 337 461.5 c 128,-1,9
 345 482 345 482 353 504 c 2,10,-1
 384 581 l 1,11,-1
 546 581 l 1,12,-1
 401 324 l 1,13,-1
 555 82 l 1,14,-1
 387 82 l 1,15,-1
 341 160 l 2,16,17
 329 182 329 182 318.5 203.5 c 128,-1,18
 308 225 308 225 296 246 c 1,19,-1
 291 246 l 1,20,21
 282 226 282 226 272 205 c 2,22,-1
 254 160 l 1,23,-1
 220 82 l 1,24,-1
 57 82 l 1,25,-1
 211 341 l 1,0,-1
EndSplineSet
Validated: 1
EndChar

StartChar: y
Encoding: 121 121 50
Width: 572
VWidth: 941
Flags: W
HStem: -127 122<124 213> 545 20G<56 220 408 562>
LayerCount: 2
Fore
SplineSet
170 -127 m 0,0,1
 145 -127 145 -127 128.5 -124.5 c 128,-1,2
 112 -122 112 -122 96 -117 c 1,3,-1
 124 1 l 1,4,-1
 140 -2 l 1,5,-1
 158 -5 l 1,6,7
 194 -5 194 -5 213.5 11.5 c 128,-1,8
 233 28 233 28 241 55 c 2,9,-1
 248 81 l 1,10,-1
 56 565 l 1,11,-1
 214 565 l 1,12,-1
 281 357 l 2,13,14
 292 323 292 323 300 289 c 2,15,-1
 318 216 l 1,16,-1
 324 216 l 1,17,18
 331 252 331 252 338.5 287.5 c 128,-1,19
 346 323 346 323 355 357 c 2,20,-1
 414 565 l 1,21,-1
 562 565 l 1,22,-1
 391 65 l 2,23,24
 375 16 375 16 354.5 -20 c 128,-1,25
 334 -56 334 -56 308 -80 c 128,-1,26
 282 -104 282 -104 248.5 -115.5 c 128,-1,27
 215 -127 215 -127 170 -127 c 0,0,1
EndSplineSet
Validated: 1
EndChar

StartChar: z
Encoding: 122 122 51
Width: 505
VWidth: 958
Flags: W
HStem: 82 122<274 483> 459 122<101 281>
LayerCount: 2
Fore
SplineSet
79 165 m 1,0,-1
 282 459 l 1,1,-1
 101 459 l 1,2,-1
 101 581 l 1,3,-1
 476 581 l 1,4,-1
 476 498 l 1,5,-1
 273 204 l 1,6,-1
 482 204 l 1,7,-1
 482 82 l 1,8,-1
 79 82 l 1,9,-1
 79 165 l 1,0,-1
EndSplineSet
Validated: 1
EndChar
